<!-- Generator: Adobe Illustrator 18.1.1, SVG Export Plug-In  -->
<svg version="1.1"
	 xmlns="http://www.w3.org/2000/svg" xmlns:xlink="http://www.w3.org/1999/xlink" xmlns:a="http://ns.adobe.com/AdobeSVGViewerExtensions/3.0/"
	 x="0px" y="0px" width="1080.5px" height="273.7px" viewBox="0 0 1080.5 273.7" enable-background="new 0 0 1080.5 273.7"
	 xml:space="preserve">
<defs>
</defs>
<g>
	<path d="M301,54.7h92v27.4h-59.4V121H393v27.4h-59.4V220H301V54.7z"/>
	<path d="M402.9,54.7h31.7V220h-31.7V54.7z"/>
	<path d="M447.2,54.7h31.5v27.4h-31.5V54.7z M447.2,93.1h31.5v127h-31.5V93.1z"/>
	<path d="M491.5,93.1h30.1v15.3h0.6c6.9-11.5,15.7-16.3,28.1-16.3c26,0,38,19.1,38,65.2c0,46.1-12,65.2-38,65.2
		c-12,0-20.1-4.1-26.7-14.8h-0.9v52.8h-31.2V93.1z M540,198.1c13.8,0,16.6-13.8,16.6-40.8c0-27-2.8-40.8-16.6-40.8
		c-14.1,0-16.8,13.8-16.8,40.8C523.2,184.3,526,198.1,540,198.1z"/>
	<path d="M597.7,54.7H630v52h0.1c6.7-9.9,14.8-14.7,26.7-14.7c26,0,38,19.1,38,65.3c0,46.1-12,65.2-38,65.2
		c-12.4,0-21.2-4.1-28.1-16.4h-0.4v14h-30.7V54.7z M646.5,198.1c13.8,0,16.6-13.8,16.6-40.8c0-27-2.8-40.8-16.6-40.8
		c-14.1,0-16.8,13.8-16.8,40.8C629.7,184.3,632.5,198.1,646.5,198.1z"/>
	<path d="M752.2,92c38.3-0.7,48.9,22.1,48.9,65.2c0,42.4-12.4,65.2-48.9,65.2c-38.3,0.7-48.9-22.1-48.9-65.2
		C703.3,114.9,715.8,92,752.2,92z M752.2,200.9c12.9,0,17.1-12.7,17.1-43.6c0-30.9-4.1-43.6-17.1-43.6c-15.7,0-17.1,18.2-17.1,43.6
		C735.1,182.6,736.5,200.9,752.2,200.9z"/>
	<path d="M812.8,133.6v-3.2c0-28.6,19.3-38.3,43.2-38.3c37.8,0,44.6,15.7,44.6,38v65.2c0,11.5,0.9,17.6,4.2,24.7h-30.4
		c-2.1-3.8-3-8.8-3.9-13.4H870c-7.4,13.4-16.4,16-31.6,16c-22.1,0-30-19-30-35.6c0-23.3,9.5-32.8,31.4-38.8l18-4.9
		c9.5-2.5,12.7-6.2,12.7-14.5c0-9.5-4-15.2-14.6-15.2c-9.7,0-14.6,6.5-14.6,16.1v3.7H812.8z M870.3,157.3c-4.4,3.2-9.6,5.3-13.5,6.2
		c-12.9,2.8-17.9,9-17.9,20.1c0,9.5,3.4,17.3,11.9,17.3c8.5,0,19.5-5.5,19.5-19.1V157.3z"/>
	<path d="M913,93.1h30.1v19.2h0.9c6.5-12,15.6-20,28.7-20c1.8,0,3.7,0.1,5.9,0.3v30.4c-3.3-0.2-6.9-0.5-10.2-0.5
		c-11.1,0-23.8,5.8-23.8,22.4V220H913V93.1z"/>
	<path d="M1050.4,206.1h-0.6c-6.9,12.3-15.7,16.4-28.1,16.4c-26,0-38-19.1-38-65.2c0-46.1,12-65.3,38-65.3c12,0,20.1,4.9,26.7,14.7
		h0.9v-52h31.2V220h-30.1V206.1z M1032,198.1c14.1,0,16.8-13.8,16.8-40.8c0-27-2.8-40.8-16.8-40.8c-13.8,0-16.6,13.8-16.6,40.8
		C1015.4,184.3,1018.2,198.1,1032,198.1z"/>
	<rect x="341.3" y="55" width="1.1" height="1.1"/>
</g>
<rect x="0" y="0" fill="#E31F26" width="273.7" height="273.7"/>
<polygon fill="#FFFFFF" points="164.7,55 109.9,55 54.7,55 54.7,218.9 109.5,218.9 109.5,164.2 164.2,164.2 164.2,109.5
	218.7,109.5 218.7,55 "/>
<rect x="109.5" y="109.5" fill="#FBD0D0" width="54.7" height="54.7"/>
<rect x="109.5" y="55" fill="#FEEAE7" width="109.2" height="54.5"/>
</svg>
